<mxfile host="app.diagrams.net" modified="2023-04-26T18:13:27.233Z" agent="Mozilla/5.0 (Macintosh; Intel Mac OS X 10_15_7) AppleWebKit/537.36 (KHTML, like Gecko) Chrome/112.0.0.0 Safari/537.36" etag="lRspNt9yzNGxKjr6RyFZ" version="21.2.2" type="github">
  <diagram id="C5RBs43oDa-KdzZeNtuy" name="Page-1">
    <mxGraphModel dx="392" dy="504" grid="1" gridSize="10" guides="1" tooltips="1" connect="1" arrows="1" fold="1" page="1" pageScale="1" pageWidth="583" pageHeight="827" math="0" shadow="0">
      <root>
        <mxCell id="WIyWlLk6GJQsqaUBKTNV-0" />
        <mxCell id="WIyWlLk6GJQsqaUBKTNV-1" parent="WIyWlLk6GJQsqaUBKTNV-0" />
        <mxCell id="UGcxe_tueUhQ9n2uPpTb-0" value="user_enters_website" style="ellipse;whiteSpace=wrap;html=1;" vertex="1" parent="WIyWlLk6GJQsqaUBKTNV-1">
          <mxGeometry x="160" y="40" width="120" height="80" as="geometry" />
        </mxCell>
        <mxCell id="UGcxe_tueUhQ9n2uPpTb-3" value="" style="endArrow=classic;html=1;rounded=0;" edge="1" parent="WIyWlLk6GJQsqaUBKTNV-1">
          <mxGeometry width="50" height="50" relative="1" as="geometry">
            <mxPoint x="219.5" y="120" as="sourcePoint" />
            <mxPoint x="220" y="170" as="targetPoint" />
          </mxGeometry>
        </mxCell>
        <mxCell id="UGcxe_tueUhQ9n2uPpTb-7" value="Search or Explore" style="rhombus;whiteSpace=wrap;html=1;" vertex="1" parent="WIyWlLk6GJQsqaUBKTNV-1">
          <mxGeometry x="180" y="170" width="80" height="80" as="geometry" />
        </mxCell>
        <mxCell id="UGcxe_tueUhQ9n2uPpTb-8" value="Search for product or Explore products" style="rounded=1;whiteSpace=wrap;html=1;" vertex="1" parent="WIyWlLk6GJQsqaUBKTNV-1">
          <mxGeometry x="160" y="290" width="120" height="60" as="geometry" />
        </mxCell>
        <mxCell id="UGcxe_tueUhQ9n2uPpTb-9" value="" style="endArrow=classic;html=1;rounded=0;exitX=0.5;exitY=1;exitDx=0;exitDy=0;entryX=0.5;entryY=0;entryDx=0;entryDy=0;" edge="1" parent="WIyWlLk6GJQsqaUBKTNV-1" source="UGcxe_tueUhQ9n2uPpTb-7" target="UGcxe_tueUhQ9n2uPpTb-8">
          <mxGeometry width="50" height="50" relative="1" as="geometry">
            <mxPoint x="240" y="230" as="sourcePoint" />
            <mxPoint x="290" y="290" as="targetPoint" />
          </mxGeometry>
        </mxCell>
        <mxCell id="UGcxe_tueUhQ9n2uPpTb-11" value="" style="endArrow=classic;html=1;rounded=0;exitX=0.5;exitY=1;exitDx=0;exitDy=0;entryX=0.5;entryY=0;entryDx=0;entryDy=0;" edge="1" parent="WIyWlLk6GJQsqaUBKTNV-1" source="UGcxe_tueUhQ9n2uPpTb-8" target="UGcxe_tueUhQ9n2uPpTb-35">
          <mxGeometry width="50" height="50" relative="1" as="geometry">
            <mxPoint x="200" y="410" as="sourcePoint" />
            <mxPoint x="220" y="400" as="targetPoint" />
          </mxGeometry>
        </mxCell>
        <mxCell id="UGcxe_tueUhQ9n2uPpTb-14" value="" style="endArrow=classic;html=1;rounded=0;exitX=0.5;exitY=1;exitDx=0;exitDy=0;entryX=0.5;entryY=0;entryDx=0;entryDy=0;" edge="1" parent="WIyWlLk6GJQsqaUBKTNV-1" target="UGcxe_tueUhQ9n2uPpTb-16">
          <mxGeometry width="50" height="50" relative="1" as="geometry">
            <mxPoint x="220" y="460" as="sourcePoint" />
            <mxPoint x="160" y="530" as="targetPoint" />
          </mxGeometry>
        </mxCell>
        <mxCell id="UGcxe_tueUhQ9n2uPpTb-15" value="" style="endArrow=classic;html=1;rounded=0;exitX=0.5;exitY=1;exitDx=0;exitDy=0;entryX=0.5;entryY=0;entryDx=0;entryDy=0;" edge="1" parent="WIyWlLk6GJQsqaUBKTNV-1" source="UGcxe_tueUhQ9n2uPpTb-16" target="UGcxe_tueUhQ9n2uPpTb-38">
          <mxGeometry width="50" height="50" relative="1" as="geometry">
            <mxPoint x="220" y="460" as="sourcePoint" />
            <mxPoint x="220" y="610" as="targetPoint" />
          </mxGeometry>
        </mxCell>
        <mxCell id="UGcxe_tueUhQ9n2uPpTb-16" value="View specific product" style="rounded=0;whiteSpace=wrap;html=1;" vertex="1" parent="WIyWlLk6GJQsqaUBKTNV-1">
          <mxGeometry x="160" y="510" width="120" height="60" as="geometry" />
        </mxCell>
        <mxCell id="UGcxe_tueUhQ9n2uPpTb-18" value="Add to cart" style="rounded=0;whiteSpace=wrap;html=1;" vertex="1" parent="WIyWlLk6GJQsqaUBKTNV-1">
          <mxGeometry x="70" y="740" width="120" height="60" as="geometry" />
        </mxCell>
        <mxCell id="UGcxe_tueUhQ9n2uPpTb-20" value="" style="endArrow=classic;html=1;rounded=0;exitX=0.5;exitY=1;exitDx=0;exitDy=0;entryX=0.5;entryY=0;entryDx=0;entryDy=0;" edge="1" parent="WIyWlLk6GJQsqaUBKTNV-1" source="UGcxe_tueUhQ9n2uPpTb-18" target="UGcxe_tueUhQ9n2uPpTb-21">
          <mxGeometry width="50" height="50" relative="1" as="geometry">
            <mxPoint x="290" y="700" as="sourcePoint" />
            <mxPoint x="290" y="750" as="targetPoint" />
            <Array as="points" />
          </mxGeometry>
        </mxCell>
        <mxCell id="UGcxe_tueUhQ9n2uPpTb-21" value="checkout?" style="rhombus;whiteSpace=wrap;html=1;" vertex="1" parent="WIyWlLk6GJQsqaUBKTNV-1">
          <mxGeometry x="90" y="840" width="80" height="80" as="geometry" />
        </mxCell>
        <mxCell id="UGcxe_tueUhQ9n2uPpTb-23" value="yes" style="endArrow=classic;html=1;rounded=0;exitX=0;exitY=1;exitDx=0;exitDy=0;entryX=0.5;entryY=0;entryDx=0;entryDy=0;" edge="1" parent="WIyWlLk6GJQsqaUBKTNV-1" source="UGcxe_tueUhQ9n2uPpTb-38" target="UGcxe_tueUhQ9n2uPpTb-18">
          <mxGeometry relative="1" as="geometry">
            <mxPoint x="190" y="670" as="sourcePoint" />
            <mxPoint x="150" y="920" as="targetPoint" />
          </mxGeometry>
        </mxCell>
        <mxCell id="UGcxe_tueUhQ9n2uPpTb-25" value="no" style="endArrow=classic;html=1;rounded=0;exitX=1;exitY=1;exitDx=0;exitDy=0;entryX=0.5;entryY=0;entryDx=0;entryDy=0;" edge="1" parent="WIyWlLk6GJQsqaUBKTNV-1" source="UGcxe_tueUhQ9n2uPpTb-38" target="UGcxe_tueUhQ9n2uPpTb-30">
          <mxGeometry relative="1" as="geometry">
            <mxPoint x="250" y="670" as="sourcePoint" />
            <mxPoint x="300" y="740" as="targetPoint" />
          </mxGeometry>
        </mxCell>
        <mxCell id="UGcxe_tueUhQ9n2uPpTb-28" value="yes" style="endArrow=classic;html=1;rounded=0;exitX=0;exitY=1;exitDx=0;exitDy=0;entryX=0.5;entryY=0;entryDx=0;entryDy=0;" edge="1" parent="WIyWlLk6GJQsqaUBKTNV-1" source="UGcxe_tueUhQ9n2uPpTb-21" target="UGcxe_tueUhQ9n2uPpTb-33">
          <mxGeometry relative="1" as="geometry">
            <mxPoint x="200" y="680" as="sourcePoint" />
            <mxPoint x="90" y="960" as="targetPoint" />
          </mxGeometry>
        </mxCell>
        <mxCell id="UGcxe_tueUhQ9n2uPpTb-29" value="no" style="endArrow=classic;html=1;rounded=0;exitX=1;exitY=1;exitDx=0;exitDy=0;entryX=0.5;entryY=0;entryDx=0;entryDy=0;" edge="1" parent="WIyWlLk6GJQsqaUBKTNV-1" source="UGcxe_tueUhQ9n2uPpTb-21" target="UGcxe_tueUhQ9n2uPpTb-34">
          <mxGeometry relative="1" as="geometry">
            <mxPoint x="260" y="680" as="sourcePoint" />
            <mxPoint x="200" y="960" as="targetPoint" />
          </mxGeometry>
        </mxCell>
        <mxCell id="UGcxe_tueUhQ9n2uPpTb-30" value="Search&amp;nbsp; again?" style="rounded=0;whiteSpace=wrap;html=1;" vertex="1" parent="WIyWlLk6GJQsqaUBKTNV-1">
          <mxGeometry x="270" y="740" width="120" height="60" as="geometry" />
        </mxCell>
        <mxCell id="UGcxe_tueUhQ9n2uPpTb-32" value="no" style="endArrow=classic;html=1;rounded=0;exitX=0;exitY=0.5;exitDx=0;exitDy=0;entryX=1;entryY=0.5;entryDx=0;entryDy=0;" edge="1" parent="WIyWlLk6GJQsqaUBKTNV-1" source="UGcxe_tueUhQ9n2uPpTb-30" target="UGcxe_tueUhQ9n2uPpTb-18">
          <mxGeometry relative="1" as="geometry">
            <mxPoint x="180" y="910" as="sourcePoint" />
            <mxPoint x="213" y="778" as="targetPoint" />
          </mxGeometry>
        </mxCell>
        <mxCell id="UGcxe_tueUhQ9n2uPpTb-33" value="View cart" style="rounded=0;whiteSpace=wrap;html=1;" vertex="1" parent="WIyWlLk6GJQsqaUBKTNV-1">
          <mxGeometry x="10" y="970" width="120" height="60" as="geometry" />
        </mxCell>
        <mxCell id="UGcxe_tueUhQ9n2uPpTb-34" value="Do not checkout" style="rounded=0;whiteSpace=wrap;html=1;" vertex="1" parent="WIyWlLk6GJQsqaUBKTNV-1">
          <mxGeometry x="140" y="970" width="120" height="60" as="geometry" />
        </mxCell>
        <mxCell id="UGcxe_tueUhQ9n2uPpTb-37" value="" style="edgeStyle=orthogonalEdgeStyle;rounded=0;orthogonalLoop=1;jettySize=auto;html=1;exitX=0.5;exitY=1;exitDx=0;exitDy=0;" edge="1" parent="WIyWlLk6GJQsqaUBKTNV-1" source="UGcxe_tueUhQ9n2uPpTb-35" target="UGcxe_tueUhQ9n2uPpTb-16">
          <mxGeometry relative="1" as="geometry" />
        </mxCell>
        <mxCell id="UGcxe_tueUhQ9n2uPpTb-35" value="Look over product" style="rounded=1;whiteSpace=wrap;html=1;" vertex="1" parent="WIyWlLk6GJQsqaUBKTNV-1">
          <mxGeometry x="160" y="400" width="120" height="60" as="geometry" />
        </mxCell>
        <mxCell id="UGcxe_tueUhQ9n2uPpTb-38" value="Continue shopping" style="rhombus;whiteSpace=wrap;html=1;" vertex="1" parent="WIyWlLk6GJQsqaUBKTNV-1">
          <mxGeometry x="180" y="610" width="80" height="80" as="geometry" />
        </mxCell>
        <mxCell id="UGcxe_tueUhQ9n2uPpTb-40" value="yes" style="endArrow=classic;html=1;rounded=0;exitX=1;exitY=0.5;exitDx=0;exitDy=0;entryX=1;entryY=0.5;entryDx=0;entryDy=0;" edge="1" parent="WIyWlLk6GJQsqaUBKTNV-1" source="UGcxe_tueUhQ9n2uPpTb-30" target="UGcxe_tueUhQ9n2uPpTb-8">
          <mxGeometry relative="1" as="geometry">
            <mxPoint x="210" y="680" as="sourcePoint" />
            <mxPoint x="390" y="250" as="targetPoint" />
            <Array as="points">
              <mxPoint x="410" y="770" />
              <mxPoint x="410" y="720" />
              <mxPoint x="410" y="630" />
              <mxPoint x="410" y="470" />
              <mxPoint x="410" y="390" />
              <mxPoint x="410" y="320" />
            </Array>
          </mxGeometry>
        </mxCell>
        <mxCell id="UGcxe_tueUhQ9n2uPpTb-41" value="" style="endArrow=classic;html=1;rounded=0;exitX=0.5;exitY=1;exitDx=0;exitDy=0;entryX=0.5;entryY=0;entryDx=0;entryDy=0;" edge="1" parent="WIyWlLk6GJQsqaUBKTNV-1" source="UGcxe_tueUhQ9n2uPpTb-33" target="UGcxe_tueUhQ9n2uPpTb-42">
          <mxGeometry width="50" height="50" relative="1" as="geometry">
            <mxPoint x="140" y="810" as="sourcePoint" />
            <mxPoint x="70" y="1080" as="targetPoint" />
            <Array as="points" />
          </mxGeometry>
        </mxCell>
        <mxCell id="UGcxe_tueUhQ9n2uPpTb-42" value="View payment" style="rounded=1;whiteSpace=wrap;html=1;" vertex="1" parent="WIyWlLk6GJQsqaUBKTNV-1">
          <mxGeometry x="10" y="1080" width="120" height="60" as="geometry" />
        </mxCell>
        <mxCell id="UGcxe_tueUhQ9n2uPpTb-43" value="" style="endArrow=classic;html=1;rounded=0;exitX=0.5;exitY=1;exitDx=0;exitDy=0;entryX=0.5;entryY=0;entryDx=0;entryDy=0;" edge="1" parent="WIyWlLk6GJQsqaUBKTNV-1" source="UGcxe_tueUhQ9n2uPpTb-42" target="UGcxe_tueUhQ9n2uPpTb-44">
          <mxGeometry width="50" height="50" relative="1" as="geometry">
            <mxPoint x="90" y="1200" as="sourcePoint" />
            <mxPoint x="70" y="1190" as="targetPoint" />
          </mxGeometry>
        </mxCell>
        <mxCell id="UGcxe_tueUhQ9n2uPpTb-44" value="Provide payment information" style="rounded=1;whiteSpace=wrap;html=1;" vertex="1" parent="WIyWlLk6GJQsqaUBKTNV-1">
          <mxGeometry x="10" y="1200" width="120" height="60" as="geometry" />
        </mxCell>
        <mxCell id="UGcxe_tueUhQ9n2uPpTb-45" value="" style="endArrow=classic;html=1;rounded=0;exitX=0.5;exitY=1;exitDx=0;exitDy=0;entryX=0.5;entryY=0;entryDx=0;entryDy=0;" edge="1" parent="WIyWlLk6GJQsqaUBKTNV-1" source="UGcxe_tueUhQ9n2uPpTb-44" target="UGcxe_tueUhQ9n2uPpTb-46">
          <mxGeometry width="50" height="50" relative="1" as="geometry">
            <mxPoint x="60" y="1320" as="sourcePoint" />
            <mxPoint x="70" y="1300" as="targetPoint" />
          </mxGeometry>
        </mxCell>
        <mxCell id="UGcxe_tueUhQ9n2uPpTb-46" value="Order confirmed" style="rounded=1;whiteSpace=wrap;html=1;" vertex="1" parent="WIyWlLk6GJQsqaUBKTNV-1">
          <mxGeometry x="10" y="1310" width="120" height="60" as="geometry" />
        </mxCell>
        <mxCell id="UGcxe_tueUhQ9n2uPpTb-47" value="Leave website" style="ellipse;whiteSpace=wrap;html=1;" vertex="1" parent="WIyWlLk6GJQsqaUBKTNV-1">
          <mxGeometry x="100" y="1420" width="120" height="80" as="geometry" />
        </mxCell>
        <mxCell id="UGcxe_tueUhQ9n2uPpTb-48" value="" style="endArrow=classic;html=1;rounded=0;exitX=0.5;exitY=1;exitDx=0;exitDy=0;entryX=0;entryY=0;entryDx=0;entryDy=0;" edge="1" parent="WIyWlLk6GJQsqaUBKTNV-1" source="UGcxe_tueUhQ9n2uPpTb-46" target="UGcxe_tueUhQ9n2uPpTb-47">
          <mxGeometry width="50" height="50" relative="1" as="geometry">
            <mxPoint x="120" y="1410" as="sourcePoint" />
            <mxPoint x="170" y="1360" as="targetPoint" />
          </mxGeometry>
        </mxCell>
        <mxCell id="UGcxe_tueUhQ9n2uPpTb-49" value="" style="endArrow=classic;html=1;rounded=0;exitX=0.5;exitY=1;exitDx=0;exitDy=0;entryX=1;entryY=0;entryDx=0;entryDy=0;" edge="1" parent="WIyWlLk6GJQsqaUBKTNV-1" source="UGcxe_tueUhQ9n2uPpTb-34" target="UGcxe_tueUhQ9n2uPpTb-47">
          <mxGeometry width="50" height="50" relative="1" as="geometry">
            <mxPoint x="170" y="1330" as="sourcePoint" />
            <mxPoint x="220" y="1280" as="targetPoint" />
          </mxGeometry>
        </mxCell>
      </root>
    </mxGraphModel>
  </diagram>
</mxfile>
